<svg width="36" height="36" viewBox="0 0 36 36" fill="none" xmlns="http://www.w3.org/2000/svg">
<path d="M28.5 18.8438H7.5C7.03404 18.8438 6.65625 18.466 6.65625 18C6.65625 17.534 7.03404 17.1562 7.5 17.1562H28.5C28.9659 17.1562 29.3437 17.534 29.3437 18C29.3437 18.466 28.9659 18.8438 28.5 18.8438Z" fill="currentColor"/>
<path d="M21.5006 24.4891C21.2542 24.4891 21.01 24.3818 20.8433 24.1751C20.5507 23.8124 20.6076 23.2812 20.9703 22.9886L27.1552 17.9999L20.9703 13.0113C20.6076 12.7187 20.5508 12.1875 20.8433 11.8248C21.1359 11.4621 21.6671 11.4053 22.0297 11.6978L29.0289 17.3431C29.2274 17.5033 29.3429 17.7448 29.3429 17.9999C29.3429 18.255 29.2274 18.4964 29.0289 18.6566L22.0297 24.302C21.8738 24.4279 21.6865 24.4891 21.5006 24.4891Z" fill="currentColor"/>
</svg>
